<svg version="1" xmlns="http://www.w3.org/2000/svg" width="682.667" height="682.667" viewBox="0 0 512.000000 512.000000"><path d="M234 .7c-27.1 2.6-41.4 5.4-62 12.2C88.5 40.4 18.1 127.4 2.4 222.5.3 235.1-.9 327.4.9 336.2c2.2 10.6 8.5 20.5 17.4 27.4 2.3 1.8 12.5 6.7 22.7 10.9 53.8 22.3 77.4 32 117.5 48.5 11 4.5 29 11.9 40 16.5 18.3 7.6 46.2 19.1 67.5 27.8 10.9 4.5 44.8 18.5 71 29.4 33.6 13.9 41.9 16 59 15 16.6-1.1 30.7-6 45-15.7 7.8-5.3 18.9-17.3 23.8-25.6 4.3-7.2 11.2-23.2 11.2-25.9 0-1-36.1-19.5-107.6-55.2-100.3-50.2-108-54.2-112.9-59.1-6.1-6.2-9.8-12.6-12-20.7-2.2-8.7-2.2-81.3.1-90 4.3-16.9 18.5-29.6 36.1-32.6 7.4-1.3 20.3.1 146.3 16 63.4 8 83.1 10.4 83.5 9.9.9-.9-4.8-23.2-9.7-37.8-9-26.8-23.6-53.8-41.7-77C415.5 43.3 348 7.3 276 1c-10.7-.9-34.1-1.1-42-.3zM133.2 213.1c2.9.6 9.1 2.9 13.8 5.1 21.6 10.3 35.3 33.7 33.6 57.3-1.2 16-6.2 27.1-17.6 38.5-23.8 23.9-60.3 23.9-84.1 0-18.7-18.8-23-45-11.3-69 7.2-14.6 23.6-27.7 39.6-31.6 6.7-1.6 19.1-1.7 26-.3z"/><path d="M111.7 243.4c-13.5 5-21.8 17.8-20.4 31.4 2.6 25.1 32.9 36 50.7 18.2 6.1-6.1 8.5-11.9 8.5-21 0-12.2-5.7-21.5-16.8-27.2-5.3-2.7-16.6-3.4-22-1.4zM279.6 218.2c-7.7 4.5-7.7 4.3-7.4 47.5.3 36.7.4 38.3 2.4 41 1.7 2.3 24 15.1 26.7 15.3.4 0 .7-23.4.7-51.9 0-43.1-.2-52-1.4-52.4-.7-.3-4.9-.8-9.2-1.2-7.1-.5-8.3-.4-11.8 1.7zM332 279.6v57.9l80.5 40.2c88 44.1 85.2 42.9 92.6 38 7.3-4.8 6.9.2 6.9-90.4V244l-2.2-.4c-1.3-.3-19.2-2.6-39.8-5.1-20.6-2.5-56.8-6.9-80.5-9.9-23.6-3-46.3-5.8-50.2-6.2l-7.3-.7v57.9z"/></svg>